<svg id="visual" viewBox="0 0 960 540" width="960" height="540" xmlns="http://www.w3.org/2000/svg" xmlns:xlink="http://www.w3.org/1999/xlink" version="1.1"><rect x="0" y="0" width="960" height="540" fill="#eef8ff"></rect><defs><linearGradient id="grad1_0" x1="43.8%" y1="0%" x2="100%" y2="100%"><stop offset="14.444444444444446%" stop-color="#cc0000" stop-opacity="1"></stop><stop offset="85.55555555555554%" stop-color="#cc0000" stop-opacity="1"></stop></linearGradient></defs><defs><linearGradient id="grad1_1" x1="43.8%" y1="0%" x2="100%" y2="100%"><stop offset="14.444444444444446%" stop-color="#cc0000" stop-opacity="1"></stop><stop offset="85.55555555555554%" stop-color="#e72154" stop-opacity="1"></stop></linearGradient></defs><defs><linearGradient id="grad1_2" x1="43.8%" y1="0%" x2="100%" y2="100%"><stop offset="14.444444444444446%" stop-color="#ec5396" stop-opacity="1"></stop><stop offset="85.55555555555554%" stop-color="#e72154" stop-opacity="1"></stop></linearGradient></defs><defs><linearGradient id="grad1_3" x1="43.8%" y1="0%" x2="100%" y2="100%"><stop offset="14.444444444444446%" stop-color="#ec5396" stop-opacity="1"></stop><stop offset="85.55555555555554%" stop-color="#df7fca" stop-opacity="1"></stop></linearGradient></defs><defs><linearGradient id="grad1_4" x1="43.8%" y1="0%" x2="100%" y2="100%"><stop offset="14.444444444444446%" stop-color="#cca6ed" stop-opacity="1"></stop><stop offset="85.55555555555554%" stop-color="#df7fca" stop-opacity="1"></stop></linearGradient></defs><defs><linearGradient id="grad1_5" x1="43.8%" y1="0%" x2="100%" y2="100%"><stop offset="14.444444444444446%" stop-color="#cca6ed" stop-opacity="1"></stop><stop offset="85.55555555555554%" stop-color="#c3c7fd" stop-opacity="1"></stop></linearGradient></defs><defs><linearGradient id="grad1_6" x1="43.8%" y1="0%" x2="100%" y2="100%"><stop offset="14.444444444444446%" stop-color="#cee2ff" stop-opacity="1"></stop><stop offset="85.55555555555554%" stop-color="#c3c7fd" stop-opacity="1"></stop></linearGradient></defs><defs><linearGradient id="grad1_7" x1="43.8%" y1="0%" x2="100%" y2="100%"><stop offset="14.444444444444446%" stop-color="#cee2ff" stop-opacity="1"></stop><stop offset="85.55555555555554%" stop-color="#eef8ff" stop-opacity="1"></stop></linearGradient></defs><defs><linearGradient id="grad2_0" x1="0%" y1="0%" x2="56.3%" y2="100%"><stop offset="14.444444444444446%" stop-color="#cc0000" stop-opacity="1"></stop><stop offset="85.55555555555554%" stop-color="#cc0000" stop-opacity="1"></stop></linearGradient></defs><defs><linearGradient id="grad2_1" x1="0%" y1="0%" x2="56.3%" y2="100%"><stop offset="14.444444444444446%" stop-color="#e72154" stop-opacity="1"></stop><stop offset="85.55555555555554%" stop-color="#cc0000" stop-opacity="1"></stop></linearGradient></defs><defs><linearGradient id="grad2_2" x1="0%" y1="0%" x2="56.3%" y2="100%"><stop offset="14.444444444444446%" stop-color="#e72154" stop-opacity="1"></stop><stop offset="85.55555555555554%" stop-color="#ec5396" stop-opacity="1"></stop></linearGradient></defs><defs><linearGradient id="grad2_3" x1="0%" y1="0%" x2="56.3%" y2="100%"><stop offset="14.444444444444446%" stop-color="#df7fca" stop-opacity="1"></stop><stop offset="85.55555555555554%" stop-color="#ec5396" stop-opacity="1"></stop></linearGradient></defs><defs><linearGradient id="grad2_4" x1="0%" y1="0%" x2="56.3%" y2="100%"><stop offset="14.444444444444446%" stop-color="#df7fca" stop-opacity="1"></stop><stop offset="85.55555555555554%" stop-color="#cca6ed" stop-opacity="1"></stop></linearGradient></defs><defs><linearGradient id="grad2_5" x1="0%" y1="0%" x2="56.3%" y2="100%"><stop offset="14.444444444444446%" stop-color="#c3c7fd" stop-opacity="1"></stop><stop offset="85.55555555555554%" stop-color="#cca6ed" stop-opacity="1"></stop></linearGradient></defs><defs><linearGradient id="grad2_6" x1="0%" y1="0%" x2="56.3%" y2="100%"><stop offset="14.444444444444446%" stop-color="#c3c7fd" stop-opacity="1"></stop><stop offset="85.55555555555554%" stop-color="#cee2ff" stop-opacity="1"></stop></linearGradient></defs><defs><linearGradient id="grad2_7" x1="0%" y1="0%" x2="56.3%" y2="100%"><stop offset="14.444444444444446%" stop-color="#eef8ff" stop-opacity="1"></stop><stop offset="85.55555555555554%" stop-color="#cee2ff" stop-opacity="1"></stop></linearGradient></defs><g transform="translate(960, 0)"><path d="M0 324C-33.8 321.8 -67.7 319.6 -100.1 308.1C-132.6 296.7 -163.6 276.1 -178.7 245.9C-193.8 215.7 -192.9 175.9 -205.5 149.3C-218.1 122.7 -244.3 109.2 -266.3 86.5C-288.3 63.8 -306.2 31.9 -324 0L0 0Z" fill="#dceeff"></path><path d="M0 283.5C-29.6 281.6 -59.2 279.6 -87.6 269.6C-116 259.6 -143.2 241.6 -156.4 215.2C-169.5 188.8 -168.8 153.9 -179.8 130.6C-190.9 107.3 -213.8 95.6 -233 75.7C-252.3 55.9 -267.9 27.9 -283.5 0L0 0Z" fill="#c5d5ff"></path><path d="M0 243C-25.4 241.3 -50.8 239.7 -75.1 231.1C-99.4 222.6 -122.7 207.1 -134 184.5C-145.3 161.8 -144.6 131.9 -154.1 112C-163.6 92 -183.2 81.9 -199.7 64.9C-216.2 47.9 -229.6 23.9 -243 0L0 0Z" fill="#c5b7f7"></path><path d="M0 202.5C-21.1 201.1 -42.3 199.7 -62.6 192.6C-82.9 185.5 -102.3 172.6 -111.7 153.7C-121.1 134.8 -120.5 110 -128.4 93.3C-136.3 76.7 -152.7 68.3 -166.4 54.1C-180.2 39.9 -191.3 19.9 -202.5 0L0 0Z" fill="#d693de"></path><path d="M0 162C-16.9 160.9 -33.8 159.8 -50.1 154.1C-66.3 148.4 -81.8 138.1 -89.3 123C-96.9 107.9 -96.4 88 -102.7 74.6C-109.1 61.3 -122.1 54.6 -133.1 43.3C-144.2 31.9 -153.1 16 -162 0L0 0Z" fill="#e769b2"></path><path d="M0 121.5C-12.7 120.7 -25.4 119.8 -37.5 115.6C-49.7 111.3 -61.4 103.6 -67 92.2C-72.7 80.9 -72.3 66 -77.1 56C-81.8 46 -91.6 41 -99.9 32.4C-108.1 23.9 -114.8 12 -121.5 0L0 0Z" fill="#ec3a76"></path><path d="M0 81C-8.5 80.4 -16.9 79.9 -25 77C-33.1 74.2 -40.9 69 -44.7 61.5C-48.4 53.9 -48.2 44 -51.4 37.3C-54.5 30.7 -61.1 27.3 -66.6 21.6C-72.1 16 -76.5 8 -81 0L0 0Z" fill="#dc0530"></path><path d="M0 40.5C-4.2 40.2 -8.5 39.9 -12.5 38.5C-16.6 37.1 -20.5 34.5 -22.3 30.7C-24.2 27 -24.1 22 -25.7 18.7C-27.3 15.3 -30.5 13.7 -33.3 10.8C-36 8 -38.3 4 -40.5 0L0 0Z" fill="#cc0000"></path></g><g transform="translate(0, 540)"><path d="M0 -324C36.5 -325.5 73.1 -326.9 100.1 -308.1C127.2 -289.4 144.8 -250.3 160.5 -220.9C176.1 -191.4 189.9 -171.4 209.5 -152.2C229.2 -133 254.8 -114.6 274.9 -89.3C294.9 -64.1 309.5 -32 324 0L0 0Z" fill="#dceeff"></path><path d="M0 -283.5C32 -284.8 63.9 -286.1 87.6 -269.6C111.3 -253.2 126.7 -219 140.4 -193.3C154.1 -167.5 166.1 -150 183.3 -133.2C200.5 -116.4 222.9 -100.2 240.5 -78.1C258.1 -56 270.8 -28 283.5 0L0 0Z" fill="#c5d5ff"></path><path d="M0 -243C27.4 -244.1 54.8 -245.2 75.1 -231.1C95.4 -217 108.6 -187.8 120.3 -165.6C132.1 -143.5 142.4 -128.6 157.2 -114.2C171.9 -99.8 191.1 -85.9 206.1 -67C221.2 -48 232.1 -24 243 0L0 0Z" fill="#c5b7f7"></path><path d="M0 -202.5C22.8 -203.4 45.7 -204.3 62.6 -192.6C79.5 -180.9 90.5 -156.5 100.3 -138C110.1 -119.6 118.7 -107.2 131 -95.1C143.2 -83.1 159.2 -71.6 171.8 -55.8C184.3 -40 193.4 -20 202.5 0L0 0Z" fill="#d693de"></path><path d="M0 -162C18.3 -162.7 36.5 -163.5 50.1 -154.1C63.6 -144.7 72.4 -125.2 80.2 -110.4C88.1 -95.7 94.9 -85.7 104.8 -76.1C114.6 -66.5 127.4 -57.3 137.4 -44.7C147.5 -32 154.7 -16 162 0L0 0Z" fill="#e769b2"></path><path d="M0 -121.5C13.7 -122 27.4 -122.6 37.5 -115.6C47.7 -108.5 54.3 -93.9 60.2 -82.8C66.1 -71.8 71.2 -64.3 78.6 -57.1C85.9 -49.9 95.5 -43 103.1 -33.5C110.6 -24 116 -12 121.5 0L0 0Z" fill="#ec3a76"></path><path d="M0 -81C9.1 -81.4 18.3 -81.7 25 -77C31.8 -72.3 36.2 -62.6 40.1 -55.2C44 -47.8 47.5 -42.9 52.4 -38.1C57.3 -33.3 63.7 -28.6 68.7 -22.3C73.7 -16 77.4 -8 81 0L0 0Z" fill="#dc0530"></path><path d="M0 -40.5C4.6 -40.7 9.1 -40.9 12.5 -38.5C15.9 -36.2 18.1 -31.3 20.1 -27.6C22 -23.9 23.7 -21.4 26.2 -19C28.6 -16.6 31.8 -14.3 34.4 -11.2C36.9 -8 38.7 -4 40.5 0L0 0Z" fill="#cc0000"></path></g></svg>